<svg width="16" height="16" viewBox="0 0 16 16" fill="none" xmlns="http://www.w3.org/2000/svg">
<path d="M3.33359 4.66669L2.52105 5.20837C1.93857 5.59669 1.64733 5.79085 1.4895 6.08696C1.33167 6.38307 1.33284 6.73109 1.33517 7.42709C1.33799 8.26502 1.34578 9.11882 1.36735 9.98275C1.41851 12.0325 1.44409 13.0574 2.19769 13.811C2.95129 14.5646 3.99 14.5906 6.06741 14.6425C7.35982 14.6748 8.64075 14.6748 9.93309 14.6425C12.0106 14.5906 13.0492 14.5646 13.8028 13.811C14.5564 13.0574 14.582 12.0325 14.6332 9.98275C14.6548 9.11882 14.6625 8.26502 14.6654 7.42709C14.6677 6.73109 14.6688 6.38306 14.511 6.08696C14.3532 5.79085 14.062 5.59669 13.4794 5.20837L12.6669 4.66669" stroke="#FFEDE7" stroke-linejoin="round"/>
<path d="M1.33331 6.66669L5.94199 9.43189C6.94465 10.0335 7.44598 10.3343 7.99998 10.3343C8.55398 10.3343 9.05531 10.0335 10.058 9.43189L14.6666 6.66669" stroke="#FFEDE7" stroke-linejoin="round"/>
<path d="M3.33331 7.99998V3.99998C3.33331 2.7429 3.33331 2.11436 3.72384 1.72384C4.11437 1.33331 4.74291 1.33331 5.99998 1.33331H9.99999C11.2571 1.33331 11.8856 1.33331 12.2761 1.72384C12.6667 2.11436 12.6667 2.7429 12.6667 3.99998V7.99998" stroke="#FFEDE7"/>
<path d="M6.50749 4.1841C7.04381 3.87949 7.51194 4.00224 7.79314 4.19778C7.90841 4.27795 7.96608 4.31804 8.00001 4.31804C8.03394 4.31804 8.09154 4.27795 8.20688 4.19778C8.48808 4.00224 8.95621 3.87949 9.49254 4.1841C10.1964 4.58388 10.3557 5.90275 8.73208 7.01547C8.42288 7.2274 8.26821 7.33334 8.00001 7.33334C7.73174 7.33334 7.57714 7.2274 7.26788 7.01547C5.64434 5.90275 5.80362 4.58388 6.50749 4.1841Z" stroke="#FFEDE7" stroke-linecap="round"/>
</svg>
